<svg width="88" height="30" viewBox="0 0 88 30" fill="none" xmlns="http://www.w3.org/2000/svg">
<path d="M6.94156 16.4736H1.10434C0.473288 16.4736 0 17.001 0 17.5595V28.728C0 29.3795 0.473288 29.9069 1.10434 29.9069H6.94156C10.6332 29.9069 13.6622 26.8666 13.6622 23.2058C13.6622 19.4519 10.6332 16.4736 6.94156 16.4736ZM6.81535 26.122H4.07028V20.2275H6.81535C8.26676 20.2275 9.52886 21.5615 9.52886 23.2058C9.52886 24.819 8.29832 26.122 6.81535 26.122Z" fill="black"/>
<path d="M6.94156 1.36523H1.10434C0.473288 1.36523 0 1.86162 0 2.51311V13.6507C0 14.2711 0.473288 14.7675 1.10434 14.7675H6.94156C10.6332 14.7675 13.6622 11.7892 13.6622 8.06637C13.6622 4.37454 10.6332 1.36523 6.94156 1.36523ZM6.81535 10.7965H4.07028V5.33628H6.81535C8.26676 5.33628 9.52886 6.60825 9.52886 8.06637C9.52886 9.61756 8.29832 10.7965 6.81535 10.7965Z" fill="black"/>
<path d="M41.0496 1.27197C39.9137 1.27197 38.9672 2.20269 38.9672 3.35057V8.19028L33.761 2.17166C33.3193 1.61323 32.6251 1.27197 31.8678 1.27197C30.5111 1.27197 29.4067 2.38883 29.4067 3.7849V12.7818C29.4067 13.9607 30.3533 14.8604 31.4577 14.8604C32.6566 14.8604 33.5401 13.9297 33.5401 12.7818V7.41468L38.7147 13.9917C39.188 14.5502 39.9137 14.8914 40.6394 14.8914C41.9962 14.8914 43.069 13.7746 43.069 12.3785V3.38159C43.1005 2.20269 42.154 1.27197 41.0496 1.27197Z" fill="black"/>
<path d="M41.0496 16.4116C39.9137 16.4116 38.9672 17.3734 38.9672 18.4902V23.2679L33.761 17.3113C33.3193 16.7219 32.6251 16.4116 31.8678 16.4116C30.5111 16.4116 29.4067 17.5285 29.4067 18.8625V27.8594C29.4067 28.9763 30.3533 29.907 31.4577 29.907C32.6566 29.907 33.5401 28.9763 33.5401 27.8594V22.4923L38.7147 29.0693C39.188 29.6588 39.9137 29.969 40.6394 29.969C41.9962 29.969 43.069 28.8832 43.069 27.5181V18.5212C43.1005 17.3734 42.154 16.4116 41.0496 16.4116Z" fill="black"/>
<path d="M71.5927 16.5356H61.8114C60.7386 16.5356 59.8867 17.3423 59.8867 18.3971C59.8867 19.4209 60.7071 20.2585 61.8114 20.2585H64.588V27.9214C64.588 29.0382 65.5346 29.9379 66.6705 29.9379H66.7021C67.8064 29.9379 68.753 29.0382 68.753 27.9214V20.2275H71.5612C72.6024 20.2275 73.4859 19.4209 73.4859 18.366C73.5174 17.3423 72.6339 16.5356 71.5927 16.5356Z" fill="black"/>
<path d="M56.8892 16.3496C55.7848 16.3496 54.8382 17.2803 54.8382 18.4282V23.33C54.8382 24.8811 53.5761 26.0911 52.1247 26.0911C50.5786 26.0911 49.3797 24.8501 49.3797 23.33V18.4282C49.3797 17.2493 48.4646 16.3496 47.3287 16.3496C46.2244 16.3496 45.2778 17.2803 45.2778 18.4282V23.0818C45.2778 26.8667 48.3384 30.0001 52.1247 30.0001C55.8795 30.0001 58.9085 26.8977 58.9085 23.0818V18.4282C58.9085 17.2803 57.9935 16.3496 56.8892 16.3496Z" fill="black"/>
<path d="M87.5267 18.4592C87.5267 17.3733 86.6433 16.4736 85.5389 16.4736H78.2503C76.0732 16.4736 74.2747 18.211 74.2747 20.3826C74.2747 22.7715 76.2625 24.5708 78.6289 24.5708H83.2671C83.5511 24.5708 83.8351 24.8501 83.8351 25.1913C83.8351 25.5016 83.5511 25.8118 83.2671 25.8118H76.2625C75.1897 25.8118 74.2747 26.7115 74.2747 27.7663V27.9214C74.2747 29.0072 75.1897 29.9069 76.2625 29.9069H83.9613C86.1384 29.9069 87.9369 28.1386 87.9369 25.9669V25.8428C87.9369 23.454 85.9806 21.6546 83.5511 21.6546H78.9444C78.6605 21.6546 78.408 21.3444 78.408 21.0341C78.408 20.7239 78.6605 20.4137 78.9444 20.4137H85.5074C86.6432 20.4137 87.5267 19.576 87.5267 18.4592Z" fill="black"/>
<path d="M21.4241 16.3186H21.2348C17.5431 16.3496 14.5457 19.39 14.5457 23.2059C14.5457 26.9598 17.5747 30.0311 21.3294 30.0311H21.4557C25.1789 30.0311 28.2394 26.9598 28.2079 23.1438C28.2079 19.3279 25.1157 16.2876 21.4241 16.3186ZM21.4557 26.2152C19.7518 26.2152 18.3951 24.8812 18.3951 23.2369C18.3951 21.5616 19.7518 20.2276 21.4557 20.2276C23.1279 20.2276 24.5162 21.5616 24.5162 23.2369C24.5162 24.8812 23.1279 26.2152 21.4557 26.2152Z" fill="#19B2AC"/>
<path fill-rule="evenodd" clip-rule="evenodd" d="M28.4604 18.118V8.09733C28.4604 8.0663 28.4604 8.03528 28.3973 7.94221C28.3973 7.81811 28.3894 7.69402 28.3815 7.56992C28.3736 7.44583 28.3657 7.32173 28.3657 7.19764V6.94945V6.70126C28.0186 1.48926 26.5357 0.124213 26.1255 0.000117467C25.5891 -0.155001 23.8222 1.08595 23.3489 1.6754C22.5916 1.17902 20.3198 1.17902 19.5626 1.6754C19.1208 1.08595 17.3223 -0.155001 16.7859 0.000117467C16.3758 0.124213 14.8928 1.48926 14.5457 6.73228V6.98047V7.22866C14.5142 7.44582 14.5142 7.72503 14.5142 7.97322V7.97323V8.09733V16.2876H14.4829V21.5617H18.2692V18.118H18.3005V17.2183V17.0322C18.4581 12.536 24.5732 12.5647 24.6739 17.0874V21.5617H28.4602V18.118H28.4604Z" fill="#FF6900"/>
<path d="M21.4874 11.882C23.1952 11.882 24.5796 10.4792 24.5796 8.74864C24.5796 7.01811 23.1952 5.61523 21.4874 5.61523C19.7797 5.61523 18.3953 7.01811 18.3953 8.74864C18.3953 10.4792 19.7797 11.882 21.4874 11.882Z" fill="white"/>
<path d="M15.8079 3.75418C15.8079 3.75418 16.5967 1.05511 17.07 1.02409C17.5117 0.993066 18.4267 2.0789 18.4267 2.0789C17.6064 2.42016 16.6282 3.00961 15.8079 3.75418Z" fill="white"/>
<path d="M27.072 3.75418C27.072 3.75418 26.2832 1.05511 25.8099 1.02409C25.3366 0.993066 24.4531 2.0789 24.4531 2.0789C25.2735 2.42016 26.2201 3.00961 27.072 3.75418Z" fill="white"/>
<path d="M16.1864 7.72469L14.5457 6.73193C14.5457 6.825 14.5457 6.91808 14.5457 6.98012C14.5457 7.07319 14.5457 7.13524 14.5457 7.22831L15.9971 8.09698C16.0286 8.128 16.0602 8.128 16.1233 8.128C16.1864 8.128 16.281 8.09698 16.3126 8.03493C16.3441 7.91084 16.3126 7.78674 16.1864 7.72469Z" fill="black"/>
<path d="M15.7132 8.40748L14.4827 7.97314C14.4827 8.00417 14.4827 8.06622 14.4827 8.09724V8.46952L15.5555 8.84181C15.587 8.84181 15.6186 8.84181 15.6186 8.84181C15.7132 8.84181 15.8079 8.77976 15.8394 8.68669C15.9025 8.59362 15.8394 8.46952 15.7132 8.40748Z" fill="black"/>
<path d="M15.587 9.15215L14.4827 9.05908V9.52444L15.5555 9.61751H15.587C15.7132 9.61751 15.8079 9.52444 15.8079 9.40034C15.8394 9.27625 15.7132 9.18318 15.587 9.15215Z" fill="black"/>
<path d="M28.4289 6.98012C28.4289 6.88705 28.4289 6.79398 28.4289 6.73193L26.7882 7.72469C26.6935 7.78674 26.6304 7.94186 26.725 8.03493C26.7566 8.09698 26.8513 8.128 26.9144 8.128C26.9459 8.128 27.009 8.128 27.0406 8.09698L28.4604 7.22831C28.4289 7.13524 28.4289 7.07319 28.4289 6.98012Z" fill="black"/>
<path d="M28.4604 8.00391L27.2298 8.43824C27.1036 8.46926 27.0405 8.62438 27.1036 8.71745C27.1352 8.81053 27.2298 8.87257 27.3245 8.87257C27.356 8.87257 27.3876 8.87257 27.3876 8.87257L28.4604 8.50029V8.128C28.4604 8.06595 28.4604 8.03493 28.4604 8.00391Z" fill="black"/>
<path d="M27.1353 9.40034C27.1353 9.52444 27.2299 9.61751 27.3561 9.61751H27.3877L28.4605 9.52444V9.05908L27.3561 9.15215C27.2299 9.18318 27.1353 9.27625 27.1353 9.40034Z" fill="black"/>
<path d="M23.2226 7.78704C23.0964 7.72499 22.9702 7.78704 22.9071 7.91114C22.7809 8.22137 22.4338 8.28342 22.1814 8.22137C22.0867 8.19035 21.8028 8.09728 21.7397 7.69397C22.0552 7.50783 22.3076 7.10452 22.3076 6.9494C22.3076 6.73223 22.0867 6.63916 21.4872 6.63916C21.3295 6.63916 21.1717 6.63916 21.0455 6.67018C20.9508 6.67018 20.6669 6.73223 20.6669 6.9494C20.6669 7.13554 20.9193 7.53885 21.2348 7.72499C21.1717 8.09728 20.8877 8.19035 20.7931 8.22137C20.5407 8.28342 20.1936 8.19035 20.0674 7.91114C20.0043 7.78704 19.8781 7.75602 19.7518 7.78704C19.6256 7.84909 19.5941 7.97318 19.6256 8.09728C19.7518 8.40752 20.0674 8.62468 20.3829 8.68673C20.4144 8.9039 20.5407 9.12106 20.73 9.24516C20.9193 9.40028 21.1717 9.46232 21.4557 9.46232C21.9605 9.46232 22.4338 9.18311 22.5285 8.65571C22.8755 8.59366 23.1595 8.37649 23.2857 8.06625C23.4119 7.97318 23.3488 7.81806 23.2226 7.78704ZM21.5188 9.02799C21.3295 9.02799 21.0139 8.93492 20.9193 8.68673H20.9508C21.1402 8.62468 21.361 8.50059 21.5188 8.31444C21.6765 8.50059 21.8974 8.62468 22.0867 8.68673H22.1183C22.0236 8.93492 21.7081 9.02799 21.5188 9.02799Z" fill="black"/>
<path d="M18.4585 5.61523C17.859 5.61523 17.2595 6.04957 17.2595 6.85619C17.2595 6.98028 17.3542 7.07335 17.4804 7.07335C17.6066 7.07335 17.7013 6.98028 17.7013 6.85619C17.7013 6.04957 18.5532 5.92547 18.9318 6.26673C19.0896 6.39083 19.1527 6.608 19.1527 6.85619C19.1527 6.98028 19.2473 7.07335 19.3735 7.07335C19.4998 7.07335 19.5944 6.98028 19.5944 6.85619C19.6575 6.04957 19.058 5.61523 18.4585 5.61523Z" fill="black"/>
<path d="M24.5794 5.61523C23.9799 5.61523 23.3804 6.04957 23.3804 6.85619C23.3804 6.98028 23.475 7.07335 23.6012 7.07335C23.7275 7.07335 23.8221 6.98028 23.8221 6.85619C23.8221 6.04957 24.674 5.92547 25.0527 6.26673C25.2104 6.39083 25.2735 6.608 25.2735 6.85619C25.2735 6.98028 25.3682 7.07335 25.4944 7.07335C25.6206 7.07335 25.7153 6.98028 25.7153 6.85619C25.7784 6.04957 25.1789 5.61523 24.5794 5.61523Z" fill="black"/>
<path d="M18.269 21.9648C18.269 21.9338 18.269 21.8717 18.269 21.8407V20.7859C15.24 22.1199 14.4827 18.2109 14.4827 18.2109V21.8407C14.4827 21.8717 14.4827 21.9338 14.4827 21.9648C14.3249 22.1199 14.1987 22.3681 14.1987 22.6163C14.1987 23.1127 14.6089 23.516 15.1138 23.516C15.2084 23.516 15.3031 23.485 15.3977 23.485V23.516C15.3977 24.0124 15.8079 24.4157 16.3128 24.4157C16.8176 24.4157 17.2278 24.0124 17.2278 23.516V23.485L17.2593 23.454C17.354 23.485 17.4802 23.516 17.5749 23.516C18.0797 23.516 18.4899 23.1127 18.4899 22.6163C18.553 22.3681 18.4583 22.151 18.269 21.9648Z" fill="white"/>
<path d="M24.6739 21.9648C24.6739 21.9338 24.6739 21.8717 24.6739 21.8407V20.7859C27.703 22.1199 28.4602 18.2109 28.4602 18.2109V21.8407C28.4602 21.8717 28.4602 21.9338 28.4602 21.9648C28.618 22.1199 28.7442 22.3681 28.7442 22.6163C28.7442 23.1127 28.334 23.516 27.8292 23.516C27.7345 23.516 27.6399 23.485 27.5452 23.485V23.516C27.5452 24.0124 27.135 24.4157 26.6302 24.4157C26.1253 24.4157 25.7152 24.0124 25.7152 23.516V23.485L25.6836 23.454C25.589 23.485 25.4627 23.516 25.3681 23.516C24.8632 23.516 24.4531 23.1127 24.4531 22.6163C24.39 22.3681 24.4846 22.151 24.6739 21.9648Z" fill="white"/>
<path d="M84.7185 8.00439H48.4016C46.5715 8.00439 45.1201 9.52456 45.1201 11.417C45.1201 13.3095 46.6031 14.8296 48.4016 14.8296H84.7185C86.5486 14.8296 88 13.3095 88 11.417C88 9.52456 86.5486 8.00439 84.7185 8.00439Z" fill="#FF6900"/>
<path d="M50.5473 12.7508H50.4842C50.4527 12.7508 50.4211 12.7508 50.358 12.7198C50.3265 12.6888 50.2949 12.6888 50.2634 12.6578L49.4114 11.4789C49.4114 11.4789 49.3799 11.4478 49.3799 11.4789C49.3799 11.4789 49.3483 11.4789 49.3483 11.5099V12.5026C49.3483 12.5337 49.3483 12.5647 49.3168 12.6267C49.3168 12.6578 49.2852 12.6888 49.2537 12.7198C49.2221 12.7508 49.1906 12.7819 49.159 12.7819C49.1275 12.7819 49.0959 12.8129 49.0328 12.8129C49.0013 12.8129 48.9697 12.8129 48.9066 12.7819C48.875 12.7819 48.8435 12.7508 48.8119 12.7198C48.7804 12.6888 48.7804 12.6578 48.7488 12.6267C48.7488 12.5957 48.7173 12.5647 48.7173 12.5026V10.362C48.7173 10.331 48.7173 10.2999 48.7488 10.2379C48.7488 10.2069 48.7804 10.1759 48.8119 10.1448C48.8435 10.1138 48.875 10.0828 48.9066 10.0828C48.9382 10.0828 48.9697 10.0518 49.0328 10.0518C49.0644 10.0518 49.0959 10.0518 49.159 10.0828C49.1906 10.1138 49.2221 10.1138 49.2537 10.1448C49.2852 10.1759 49.2852 10.2069 49.3168 10.2379C49.3168 10.2689 49.3483 10.2999 49.3483 10.362V11.2927C49.3483 11.2927 49.3483 11.3237 49.3799 11.3237C49.4114 11.3237 49.4114 11.3237 49.4114 11.3237L50.2634 10.1759C50.2949 10.1448 50.3265 10.1138 50.358 10.1138C50.3896 10.0828 50.4211 10.0828 50.4842 10.0828C50.5473 10.0828 50.5789 10.0828 50.6104 10.1138C50.642 10.1448 50.6735 10.1759 50.7051 10.2069C50.7366 10.2379 50.7366 10.2999 50.7366 10.331C50.7366 10.362 50.7051 10.424 50.6735 10.4551L49.9794 11.3548L50.7366 12.3785C50.7682 12.4096 50.7682 12.4716 50.7998 12.5026C50.7998 12.5337 50.7997 12.5957 50.7682 12.6267C50.7366 12.6578 50.7051 12.6888 50.6735 12.7198C50.642 12.7508 50.5789 12.7508 50.5473 12.7508Z" fill="black"/>
<path d="M53.8286 11.386C53.8286 11.8204 53.7024 12.1927 53.4815 12.4098C53.2607 12.658 52.9452 12.7821 52.5034 12.7821C52.0932 12.7821 51.7462 12.658 51.5253 12.4098C51.3044 12.1616 51.1782 11.8204 51.1782 11.386C51.1782 10.9207 51.3044 10.5794 51.5253 10.3623C51.7462 10.1141 52.0617 10.021 52.5034 10.021C52.9136 10.021 53.2607 10.1451 53.4815 10.3933C53.7024 10.6104 53.8286 10.9517 53.8286 11.386ZM51.8093 11.386C51.8093 11.6963 51.8724 11.9134 51.9986 12.0686C52.1248 12.2237 52.2826 12.2857 52.535 12.2857C53.0083 12.2857 53.2291 11.9755 53.2291 11.386C53.2291 10.7656 53.0083 10.4864 52.535 10.4864C52.3141 10.4864 52.1248 10.5484 51.9986 10.7035C51.8724 10.8586 51.8093 11.1068 51.8093 11.386Z" fill="black"/>
<path d="M55.4063 12.5337V12.3786H55.3747C55.1538 12.3786 54.933 12.3476 54.7752 12.2545C54.5859 12.1614 54.4597 12.0373 54.365 11.8822C54.2704 11.7271 54.2073 11.5409 54.2073 11.3548C54.2073 11.2617 54.2073 11.1687 54.2388 11.0756C54.2704 10.9825 54.3019 10.9205 54.3335 10.8274C54.365 10.7653 54.4281 10.6723 54.4912 10.6102C54.5544 10.5482 54.6175 10.4861 54.7121 10.4551C54.8068 10.4241 54.9014 10.3931 54.9961 10.362C55.0907 10.331 55.217 10.331 55.3116 10.331H55.4063V10.269C55.4063 10.2379 55.4063 10.2069 55.4378 10.1759C55.4378 10.1449 55.4694 10.1138 55.5009 10.0828C55.5325 10.0518 55.564 10.0518 55.5956 10.0208C55.6271 10.0208 55.6587 9.98975 55.6902 9.98975C55.7218 9.98975 55.7533 9.98975 55.7849 10.0208C55.8164 10.0208 55.848 10.0518 55.8796 10.0828C55.9111 10.1138 55.9111 10.1449 55.9427 10.1759C55.9427 10.2069 55.9742 10.2379 55.9742 10.269V10.331H56.0689C56.2266 10.331 56.3844 10.362 56.5422 10.3931C56.6684 10.4551 56.7946 10.5172 56.8892 10.6102C56.9839 10.7033 57.047 10.7964 57.1101 10.9205C57.1732 11.0446 57.1732 11.1686 57.1732 11.3238C57.1732 11.5099 57.1101 11.6961 57.0154 11.8512C56.9208 12.0063 56.763 12.1304 56.6053 12.2235C56.4159 12.3165 56.2266 12.3476 56.0058 12.3476H55.9742V12.5027C55.9742 12.5337 55.9742 12.5647 55.9427 12.5957C55.9427 12.6268 55.9111 12.6578 55.8796 12.6888C55.848 12.7198 55.8164 12.7198 55.7849 12.7509C55.7533 12.7509 55.7218 12.7819 55.6902 12.7819C55.6587 12.7819 55.6271 12.7819 55.5956 12.7509C55.564 12.7509 55.5325 12.7198 55.5009 12.6888C55.4694 12.6578 55.4694 12.6268 55.4378 12.5957C55.4063 12.5957 55.4063 12.5647 55.4063 12.5337ZM55.4063 10.7964H55.3432C55.1538 10.7964 55.0276 10.8584 54.9014 10.9515C54.8068 11.0446 54.7437 11.1997 54.7437 11.3548C54.7437 11.5409 54.8068 11.665 54.9014 11.7891C55.0276 11.8822 55.1854 11.9442 55.3747 11.9442H55.4063V10.7964ZM55.9427 11.9132C56.1635 11.9132 56.3213 11.8512 56.4475 11.7581C56.5737 11.665 56.6053 11.5099 56.6053 11.3238C56.6053 11.1686 56.5422 11.0135 56.4475 10.9205C56.3528 10.8274 56.1951 10.7653 56.0058 10.7653H55.9427V11.9132Z" fill="black"/>
<path d="M58.9715 12.7508H57.8356C57.8041 12.7508 57.7725 12.7508 57.741 12.7198C57.7094 12.7198 57.6779 12.6888 57.6779 12.6888C57.6463 12.6578 57.6463 12.6578 57.6463 12.6267C57.6463 12.5957 57.6147 12.5647 57.6147 12.5337V10.2689C57.6147 10.2379 57.6147 10.2069 57.6463 10.1759C57.6463 10.1448 57.6779 10.1138 57.6779 10.1138C57.7094 10.0828 57.7094 10.0828 57.741 10.0828C57.7725 10.0828 57.8041 10.0518 57.8356 10.0518H58.9715C59.0031 10.0518 59.0346 10.0518 59.0662 10.0828C59.0977 10.0828 59.1293 10.1138 59.1293 10.1448C59.1608 10.1759 59.1608 10.1759 59.1924 10.2069C59.1924 10.2379 59.2239 10.2689 59.2239 10.2999C59.2239 10.331 59.2239 10.362 59.1924 10.393C59.1924 10.424 59.1608 10.4551 59.1293 10.4551C59.0977 10.4861 59.0977 10.4861 59.0662 10.5171C59.0346 10.5171 59.0031 10.5481 58.9715 10.5481H58.2142V11.1376H58.9084C58.9399 11.1376 58.9715 11.1376 59.0031 11.1686C59.0346 11.1686 59.0662 11.1996 59.0662 11.2307C59.0977 11.2617 59.0977 11.2617 59.1293 11.2927C59.1293 11.3237 59.1608 11.3548 59.1608 11.3858C59.1608 11.4168 59.1608 11.4478 59.1293 11.4789C59.1293 11.5099 59.0977 11.5409 59.0662 11.5409C59.0346 11.5409 59.0031 11.5719 59.0031 11.6029C58.9715 11.6029 58.9399 11.634 58.9084 11.634H58.2142V12.3165H58.9715C59.0031 12.3165 59.0346 12.3165 59.0662 12.3475C59.0977 12.3475 59.1293 12.3785 59.1293 12.4096C59.1608 12.4406 59.1608 12.4406 59.1924 12.4716C59.1924 12.5026 59.2239 12.5337 59.2239 12.5647C59.2239 12.5957 59.2239 12.6267 59.1924 12.6578C59.1924 12.6888 59.1608 12.7198 59.1293 12.7198C59.0977 12.7508 59.0977 12.7508 59.0662 12.7818C59.0346 12.7508 59.0031 12.7508 58.9715 12.7508Z" fill="black"/>
<path d="M60.9911 10.0518C61.0226 10.0518 61.0542 10.0518 61.0857 10.0828C61.1173 10.0828 61.1488 10.1138 61.1804 10.1448C61.2119 10.1759 61.2119 10.2069 61.2435 10.2379C61.2435 10.2689 61.275 10.2999 61.275 10.331V11.3858V11.727L61.2119 12.0993L62.3794 10.2069C62.4109 10.1448 62.4425 10.1138 62.5056 10.0828C62.5687 10.0518 62.6002 10.0518 62.6633 10.0518H62.8527C62.8842 10.0518 62.9473 10.0518 62.9789 10.0828C63.0104 10.1138 63.042 10.1138 63.0735 10.1448C63.1051 10.1759 63.1366 10.2069 63.1366 10.2379C63.1682 10.2689 63.1682 10.331 63.1682 10.362V12.5026C63.1682 12.5337 63.1682 12.5647 63.1366 12.5957C63.1366 12.6267 63.1051 12.6578 63.0735 12.6888C63.042 12.7198 63.0104 12.7198 62.9789 12.7508C62.9473 12.7508 62.9158 12.7818 62.8842 12.7818C62.8527 12.7818 62.8211 12.7818 62.7896 12.7508C62.758 12.7508 62.7265 12.7198 62.6949 12.6888C62.6633 12.6578 62.6633 12.6267 62.6318 12.5957C62.6318 12.5647 62.6002 12.5337 62.6002 12.5026V11.4478C62.6002 11.2617 62.6002 11.0135 62.6318 10.6722L61.4644 12.5957C61.4328 12.6578 61.4012 12.6888 61.3381 12.7198C61.275 12.7508 61.2435 12.7508 61.1804 12.7508H60.9911C60.9595 12.7508 60.8964 12.7508 60.8648 12.7198C60.8333 12.6888 60.8017 12.6888 60.7702 12.6578C60.7386 12.6267 60.7071 12.5957 60.7071 12.5647C60.6755 12.5337 60.6755 12.4716 60.6755 12.4406V10.331C60.6755 10.2999 60.6755 10.2689 60.7071 10.2379C60.7071 10.2069 60.7386 10.1759 60.7702 10.1448C60.8017 10.1138 60.8333 10.1138 60.8648 10.0828C60.928 10.0518 60.9595 10.0518 60.9911 10.0518Z" fill="black"/>
<path d="M66.7021 12.7511C66.6705 12.7511 66.639 12.7511 66.5759 12.7201C66.5443 12.7201 66.5128 12.689 66.4812 12.658C66.4497 12.627 66.4181 12.596 66.4181 12.5649C66.4181 12.5339 66.3866 12.5029 66.3866 12.4409V10.4864H65.3769V12.4409C65.3769 12.4719 65.3769 12.5029 65.3453 12.5649C65.3453 12.596 65.3138 12.627 65.2822 12.658C65.2507 12.689 65.2191 12.7201 65.1876 12.7201C65.156 12.7201 65.1245 12.7511 65.0614 12.7511C65.0298 12.7511 64.9983 12.7511 64.9352 12.7201C64.9036 12.7201 64.8721 12.689 64.8405 12.658C64.809 12.627 64.809 12.596 64.7774 12.5649C64.7774 12.5339 64.7458 12.5029 64.7458 12.4409V10.3312C64.7458 10.3002 64.7459 10.2382 64.7774 10.2071C64.809 10.1761 64.809 10.1451 64.8405 10.1141C64.8721 10.083 64.9036 10.052 64.9352 10.052C64.9667 10.021 65.0298 10.021 65.0614 10.021H66.5759C66.6074 10.021 66.6705 10.021 66.7021 10.052C66.7337 10.083 66.7652 10.083 66.7968 10.1141C66.8283 10.1451 66.8599 10.1761 66.8599 10.2071C66.8914 10.2382 66.8914 10.3002 66.8914 10.3312V12.4409C66.8914 12.4719 66.8914 12.5029 66.8599 12.5649C66.8599 12.596 66.8283 12.627 66.7968 12.658C66.7652 12.689 66.7337 12.7201 66.7021 12.7201C66.7968 12.7511 66.7337 12.7511 66.7021 12.7511Z" fill="black"/>
<path d="M70.1414 11.386C70.1414 11.8204 70.0152 12.1927 69.7943 12.4098C69.5734 12.658 69.2579 12.7821 68.8162 12.7821C68.3744 12.7821 68.0589 12.658 67.838 12.4098C67.6172 12.1616 67.491 11.8204 67.491 11.386C67.491 10.9207 67.6172 10.5794 67.838 10.3623C68.0589 10.1141 68.3744 10.021 68.8162 10.021C69.2264 10.021 69.5734 10.1451 69.7943 10.3933C70.0467 10.6104 70.1414 10.9517 70.1414 11.386ZM68.1536 11.386C68.1536 11.6963 68.2167 11.9134 68.3429 12.0686C68.4691 12.2237 68.6269 12.2857 68.8793 12.2857C69.3526 12.2857 69.5734 11.9755 69.5734 11.386C69.5734 10.7656 69.3526 10.4864 68.8793 10.4864C68.6584 10.4864 68.4691 10.5484 68.3429 10.7035C68.1851 10.8586 68.1536 11.1068 68.1536 11.386Z" fill="black"/>
<path d="M72.6339 12.7509C72.6024 12.7509 72.5708 12.7509 72.5077 12.7198C72.4762 12.7198 72.4446 12.6888 72.4131 12.6578C72.3815 12.6268 72.35 12.5957 72.35 12.5647C72.35 12.5337 72.3184 12.5027 72.3184 12.4406V11.572H71.2141V12.4406C71.2141 12.4716 71.2141 12.5027 71.1825 12.5647C71.1825 12.5957 71.151 12.6268 71.1194 12.6578C71.0878 12.6888 71.0563 12.6888 71.0247 12.7198C70.9932 12.7198 70.9616 12.7509 70.8985 12.7509C70.867 12.7509 70.8354 12.7509 70.7723 12.7198C70.7408 12.7198 70.7092 12.6888 70.6777 12.6578C70.6461 12.6268 70.6461 12.5957 70.6146 12.5647C70.6146 12.5337 70.583 12.5027 70.583 12.4406V10.3C70.583 10.269 70.583 10.2379 70.6146 10.1759C70.6146 10.1449 70.6461 10.1138 70.6777 10.0828C70.7092 10.0518 70.7408 10.0208 70.7723 10.0208C70.8039 10.0208 70.8354 9.98975 70.8985 9.98975C70.9301 9.98975 70.9616 9.98975 71.0247 10.0208C71.0563 10.0208 71.0878 10.0518 71.1194 10.0828C71.151 10.1138 71.1825 10.1449 71.1825 10.1759C71.1825 10.2069 71.2141 10.2379 71.2141 10.3V11.0756H72.3184V10.3C72.3184 10.269 72.3184 10.2379 72.35 10.1759C72.35 10.1449 72.3815 10.1138 72.4131 10.0828C72.4446 10.0518 72.4762 10.0208 72.5077 10.0208C72.5393 10.0208 72.5708 9.98975 72.6339 9.98975C72.6655 9.98975 72.697 9.98975 72.7601 10.0208C72.7917 10.0208 72.8232 10.0518 72.8548 10.0828C72.8863 10.1138 72.9179 10.1449 72.9179 10.1759C72.9179 10.2069 72.9494 10.2379 72.9494 10.3V12.4406C72.9494 12.4716 72.9495 12.5027 72.9179 12.5647C72.9179 12.5957 72.8863 12.6268 72.8548 12.6578C72.8232 12.6888 72.7917 12.6888 72.7601 12.7198C72.7286 12.7509 72.6655 12.7509 72.6339 12.7509Z" fill="black"/>
<path d="M75.4104 12.7511C75.3789 12.7511 75.3473 12.7511 75.2842 12.7201C75.2527 12.7201 75.2211 12.689 75.1896 12.658C75.158 12.627 75.158 12.596 75.1264 12.5649C75.1264 12.5339 75.0949 12.5029 75.0949 12.4409V11.6963C75.0002 11.7273 74.9056 11.7583 74.8425 11.7894C74.7478 11.8204 74.6847 11.8204 74.6216 11.8514C74.5585 11.8514 74.4954 11.8824 74.4323 11.8824C74.3692 11.8824 74.3061 11.8824 74.243 11.8824C74.1168 11.8824 73.9906 11.8514 73.8959 11.8204C73.8012 11.7894 73.7066 11.7583 73.6435 11.6963C73.5804 11.6342 73.5173 11.5722 73.4857 11.4791C73.4542 11.386 73.4226 11.293 73.4226 11.1689V10.3312C73.4226 10.3002 73.4226 10.2692 73.4542 10.2071C73.4542 10.1761 73.4857 10.1451 73.5173 10.1141C73.5488 10.083 73.5804 10.083 73.6119 10.052C73.6435 10.052 73.675 10.021 73.7381 10.021C73.7697 10.021 73.8012 10.021 73.8643 10.052C73.8959 10.083 73.9274 10.083 73.959 10.1141C73.9906 10.1451 74.0221 10.1761 74.0221 10.2071C74.0221 10.2382 74.0537 10.2692 74.0537 10.3312V11.0138C74.0537 11.1379 74.0852 11.2309 74.1483 11.324C74.2114 11.386 74.3061 11.4171 74.4638 11.4171C74.5269 11.4171 74.5585 11.4171 74.6216 11.4171C74.6847 11.4171 74.7163 11.4171 74.7794 11.386C74.8425 11.386 74.874 11.355 74.9371 11.355C75.0002 11.324 75.0633 11.324 75.158 11.293V10.3623C75.158 10.3312 75.158 10.3002 75.1896 10.2382C75.1896 10.2071 75.2211 10.1761 75.2527 10.1451C75.2842 10.1141 75.3158 10.1141 75.3473 10.083C75.3789 10.083 75.4104 10.052 75.4735 10.052C75.5051 10.052 75.5366 10.052 75.5997 10.083C75.6313 10.1141 75.6628 10.1141 75.6944 10.1451C75.7259 10.1761 75.7575 10.2071 75.7575 10.2382C75.7575 10.2692 75.789 10.3002 75.789 10.3623V12.5029C75.789 12.5339 75.7891 12.5649 75.7575 12.627C75.7575 12.658 75.7259 12.689 75.6944 12.7201C75.6628 12.7511 75.6313 12.7821 75.5997 12.7821C75.4735 12.7511 75.442 12.7511 75.4104 12.7511Z" fill="black"/>
<path d="M76.6096 10.0518C76.6412 10.0518 76.6727 10.0518 76.7043 10.0828C76.7358 10.0828 76.7674 10.1138 76.7989 10.1448C76.8305 10.1759 76.8305 10.2069 76.862 10.2379C76.862 10.2689 76.8936 10.2999 76.8936 10.331V11.3858V11.727L76.862 12.1304L78.0295 10.2379C78.061 10.1759 78.0926 10.1448 78.1557 10.1138C78.2188 10.0828 78.2503 10.0828 78.3134 10.0828H78.5027C78.5343 10.0828 78.5974 10.0828 78.629 10.1138C78.6605 10.1448 78.6921 10.1448 78.7236 10.1759C78.7552 10.2069 78.7867 10.2379 78.7867 10.2689C78.8183 10.2999 78.8183 10.362 78.8183 10.393V12.5337C78.8183 12.5647 78.8183 12.5957 78.7867 12.6267C78.7867 12.6578 78.7552 12.6888 78.7236 12.7198C78.6921 12.7508 78.6605 12.7508 78.629 12.7819C78.5974 12.7819 78.5658 12.8129 78.5343 12.8129C78.5027 12.8129 78.4712 12.8129 78.4396 12.7819C78.4081 12.7819 78.3765 12.7508 78.345 12.7198C78.3134 12.6888 78.3134 12.6578 78.2819 12.6267C78.2819 12.5957 78.2503 12.5647 78.2503 12.5337V11.4789C78.2503 11.2927 78.2503 11.0445 78.2819 10.7033L77.1144 12.6267C77.0829 12.6888 77.0513 12.7198 76.9882 12.7508C76.9251 12.7818 76.8936 12.7819 76.8305 12.7819H76.6727C76.6411 12.7819 76.578 12.7818 76.5465 12.7508C76.5149 12.7198 76.4834 12.7198 76.4518 12.6888C76.4203 12.6578 76.3887 12.6267 76.3887 12.5957C76.3572 12.5647 76.3572 12.5026 76.3572 12.4716V10.362C76.3572 10.331 76.3572 10.2999 76.3887 10.2689C76.3887 10.2379 76.4203 10.2069 76.4518 10.1759C76.4834 10.1448 76.5149 10.1448 76.5465 10.1138C76.5465 10.0518 76.578 10.0518 76.6096 10.0518Z" fill="black"/>
<path d="M81.248 12.7508H81.2164C81.1848 12.7508 81.1533 12.7508 81.0902 12.7198C81.0586 12.6888 81.0271 12.6888 80.9955 12.6578L80.1436 11.4789C80.1436 11.4789 80.1121 11.4478 80.1121 11.4789C80.1121 11.4789 80.0805 11.4789 80.0805 11.5099V12.5026C80.0805 12.5337 80.0805 12.5647 80.049 12.6267C80.049 12.6578 80.0174 12.6888 79.9859 12.7198C79.9543 12.7508 79.9227 12.7819 79.8912 12.7819C79.8596 12.7819 79.8281 12.8129 79.765 12.8129C79.7334 12.8129 79.7019 12.8129 79.6388 12.7819C79.6072 12.7819 79.5757 12.7508 79.5441 12.7198C79.5126 12.6888 79.5126 12.6578 79.481 12.6267C79.481 12.5957 79.4495 12.5647 79.4495 12.5026V10.362C79.4495 10.331 79.4495 10.2999 79.481 10.2379C79.481 10.2069 79.5126 10.1759 79.5441 10.1448C79.5757 10.1138 79.6072 10.0828 79.6388 10.0828C79.6703 10.0828 79.7019 10.0518 79.765 10.0518C79.7965 10.0518 79.8281 10.0518 79.8912 10.0828C79.9227 10.1138 79.9543 10.1138 79.9859 10.1448C80.0174 10.1759 80.0174 10.2069 80.049 10.2379C80.049 10.2689 80.0805 10.2999 80.0805 10.362V11.2927C80.0805 11.2927 80.0805 11.3237 80.1121 11.3237C80.1436 11.3237 80.1436 11.3237 80.1436 11.3237L80.9955 10.1759C81.0271 10.1448 81.0586 10.1138 81.0902 10.1138C81.1217 10.0828 81.1533 10.0828 81.2164 10.0828C81.2795 10.0828 81.3111 10.0828 81.3426 10.1138C81.3742 10.1448 81.4057 10.1759 81.4373 10.2069C81.4688 10.2379 81.4688 10.2999 81.4688 10.331C81.4688 10.362 81.4373 10.424 81.4057 10.4551L80.7116 11.3548L81.4688 12.3785C81.5004 12.4096 81.5004 12.4716 81.5319 12.5026C81.5319 12.5337 81.5319 12.5957 81.5004 12.6267C81.4688 12.6578 81.4373 12.6888 81.4057 12.7198C81.3426 12.7508 81.3111 12.7508 81.248 12.7508Z" fill="black"/>
<path d="M82.3206 10.0518C82.3521 10.0518 82.3837 10.0518 82.4153 10.0828C82.4468 10.0828 82.4784 10.1138 82.5099 10.1448C82.5415 10.1759 82.5415 10.2069 82.573 10.2379C82.573 10.2689 82.6046 10.2999 82.6046 10.331V11.3858V11.727L82.573 12.1304L83.7405 10.2379C83.772 10.1759 83.8036 10.1448 83.8667 10.1138C83.9298 10.0828 83.9613 10.0828 84.0244 10.0828H84.2137C84.2453 10.0828 84.3084 10.0828 84.3399 10.1138C84.3715 10.1448 84.4031 10.1448 84.4346 10.1759C84.4662 10.2069 84.4977 10.2379 84.4977 10.2689C84.5293 10.2999 84.5293 10.362 84.5293 10.393V12.5337C84.5293 12.5647 84.5293 12.5957 84.4977 12.6267C84.4977 12.6578 84.4662 12.6888 84.4346 12.7198C84.4031 12.7508 84.3715 12.7508 84.3399 12.7819C84.3084 12.7819 84.2768 12.8129 84.2453 12.8129C84.2137 12.8129 84.1822 12.8129 84.1506 12.7819C84.1191 12.7819 84.0875 12.7508 84.056 12.7198C84.0244 12.6888 84.0244 12.6578 83.9929 12.6267C83.9929 12.5957 83.9613 12.5647 83.9613 12.5337V11.4789C83.9613 11.2927 83.9613 11.0445 83.9929 10.7033L82.8254 12.6267C82.7939 12.6888 82.7623 12.7198 82.6992 12.7508C82.6361 12.7818 82.6046 12.7819 82.5415 12.7819H82.3521C82.3206 12.7819 82.2575 12.7818 82.2259 12.7508C82.1944 12.7198 82.1628 12.7198 82.1313 12.6888C82.0997 12.6578 82.0682 12.6267 82.0682 12.5957C82.0366 12.5647 82.0366 12.5026 82.0366 12.4716V10.362C82.0366 10.331 82.0366 10.2999 82.0682 10.2689C82.0682 10.2379 82.0997 10.2069 82.1313 10.1759C82.1628 10.1448 82.1944 10.1448 82.2259 10.1138C82.2259 10.0518 82.2575 10.0518 82.3206 10.0518Z" fill="black"/>
</svg>
